<svg t="1686398720647" class="icon" viewBox="0 0 1024 1024" version="1.1" xmlns="http://www.w3.org/2000/svg" p-id="70875" width="36" height="36"><path d="M512 1024c371.2 0 512-140.8 512-512S883.2 0 512 0 0 140.8 0 512s140.8 512 512 512z" fill="#FE59A0" p-id="70876"></path><path d="M447.023787 346.25536l-19.305814 19.31264a6.826667 6.826667 0 0 1-9.652906 0L316.689067 264.192a6.826667 6.826667 0 0 1 0-9.652907l19.31264-19.305813a6.826667 6.826667 0 0 1 9.652906 0l101.376 101.369173a6.826667 6.826667 0 0 1 0 9.652907zM597.742933 365.568l-19.319466-19.31264a6.826667 6.826667 0 0 1 0-9.652907l101.376-101.376a6.826667 6.826667 0 0 1 9.652906 0l19.31264 19.319467a6.826667 6.826667 0 0 1 0 9.64608l-101.376 101.376a6.826667 6.826667 0 0 1-9.652906 0z" fill="#FFFFFF" p-id="70877"></path><path d="M211.626667 334.506667m68.266666 0l464.213334 0q68.266667 0 68.266666 68.266666l0 279.893334q0 68.266667-68.266666 68.266666l-464.213334 0q-68.266667 0-68.266666-68.266666l0-279.893334q0-68.266667 68.266666-68.266666Z" fill="#FFFFFF" p-id="70878"></path><path d="M260.73088 382.293333m13.653333 0l475.2384 0q13.653333 0 13.653334 13.653334l0 293.546666q0 13.653333-13.653334 13.653334l-475.2384 0q-13.653333 0-13.653333-13.653334l0-293.546666q0-13.653333 13.653333-13.653334Z" fill="#FE59A0" p-id="70879"></path><path d="M338.541227 490.816853l98.911573-26.50112 8.833707 32.9728-98.911574 26.50112zM683.2128 523.789653l-98.904747-26.507946 8.833707-32.9728 98.911573 26.507946z" fill="#FFFFFF" p-id="70880"></path></svg>
