<svg t="1692596619120" class="icon" viewBox="0 0 1024 1024" version="1.1" xmlns="http://www.w3.org/2000/svg" p-id="39502" width="200" height="200"><path d="M512.96 512.128m-498.176 0a7.784 7.784 0 1 0 996.352 0 7.784 7.784 0 1 0-996.352 0Z" fill="#65CC9B" p-id="39503"></path><path d="M540.992 512l236.992 180.48c-56.384 73.984-144.128 117.376-236.992 117.376-164.48 0-297.856-133.376-297.856-297.856 0-164.224 133.376-297.6 297.856-297.6 96.064 0 185.984 46.272 241.984 124.224L540.992 512z" fill="#ffffff" p-id="39504"></path><path d="M588.352 346.368m-38.464 0a0.601 0.601 0 1 0 76.928 0 0.601 0.601 0 1 0-76.928 0Z" fill="#65CC9B" p-id="39505"></path></svg>