<svg t="1692595795199" class="icon" viewBox="0 0 1024 1024" version="1.1" xmlns="http://www.w3.org/2000/svg" p-id="9826" width="200" height="200"><path d="M512 516.03456m-507.96544 0a507.96544 507.96544 0 1 0 1015.93088 0 507.96544 507.96544 0 1 0-1015.93088 0Z" fill="#00C853" p-id="9827"></path><path d="M586.21952 461.1584V297.34912a252.4416 252.4416 0 0 0-14.17728-4.31616 230.4768 230.4768 0 0 0-59.70944-7.89504c-8.85248 0-17.54112 0.53248-26.10176 1.53088a230.15424 230.15424 0 0 0-59.9552 15.16544c0.00512 0 155.79648 153.61024 159.94368 159.32416z m132.44416-48.65536a237.89056 237.89056 0 0 0-6.99904-12.99968 229.0432 229.0432 0 0 0-36.59264-47.63136 225.1776 225.1776 0 0 0-19.54816-17.3056 229.83168 229.83168 0 0 0-53.13536-31.50848s1.14176 218.32704 0 225.29024l116.2752-115.84512z m-63.14496 42.43456l0.15872 0.1792-0.15872 0.16896 0.14336-0.16896-0.14336-0.1792z m85.8112 35.47136a226.95424 226.95424 0 0 0-15.21152-59.73504s-154.13248 155.2128-159.90272 159.34976h164.42368c1.58208-4.6336 3.01056-9.35424 4.30592-14.12608a227.22048 227.22048 0 0 0 7.95136-59.48416c0-8.80128-0.55808-17.4848-1.56672-26.00448z m-243.86048 116.864l116.28032 115.84512a238.64832 238.64832 0 0 0 13.056-6.96832 228.736 228.736 0 0 0 47.82592-36.46976 226.7648 226.7648 0 0 0 17.35168-19.47136 228.86912 228.86912 0 0 0 31.62624-52.96128c-0.00512 0.00512-219.13088 1.14176-226.14016 0.0256zM437.80608 570.88v163.84c4.65408 1.57696 9.40032 3.01056 14.16192 4.29056a229.5808 229.5808 0 0 0 59.70944 7.92064c8.81664 0 17.53088-0.55808 26.06592-1.54112a229.96992 229.96992 0 0 0 59.9552-15.1808c0.01536 0-155.74528-153.57952-159.89248-159.32928z m14.5408 89.37984l-0.23552-0.23552v-0.0256l0.256 0.26112h-0.02048z m-30.90944-157.71136l-116.23936 115.85024c2.16576 4.41856 4.52096 8.76032 6.9888 13.00992a226.4576 226.4576 0 0 0 36.608 47.68256 222.55616 222.55616 0 0 0 19.53792 17.28512 228.31616 228.31616 0 0 0 53.15584 31.50848s-1.18272-218.3424-0.0512-225.33632z m36.34688-60.40576H293.33504a227.98848 227.98848 0 0 0-12.23168 73.6c0 8.79104 0.55296 17.50016 1.55648 25.99936a225.52064 225.52064 0 0 0 15.24224 59.72992S452.00896 446.2592 457.78432 442.14272z m67.61984-16.47104L409.14432 309.82656c-4.4288 2.21184-8.79104 4.51072-13.06624 6.96832a228.91008 228.91008 0 0 0-47.82592 36.44928 229.28896 229.28896 0 0 0-17.37728 19.4816 229.0688 229.0688 0 0 0-31.63648 52.98688c0.00512 0 219.17696-1.15712 226.16576-0.04096z" fill="#FFFFFF" p-id="9828"></path></svg>