<svg t="1689843469330" class="icon" viewBox="0 0 1024 1024" version="1.1" xmlns="http://www.w3.org/2000/svg" p-id="13593" width="200" height="200"><path d="M512 512m-506 0a506 506 0 1 0 1012 0 506 506 0 1 0-1012 0Z" fill="#84DBFF" p-id="13594"></path><path d="M278.6 806.8c0 11.8 9.6 21.4 21.4 21.4h31.8c11.8 0 21.4-9.6 21.4-21.4v-72h-74.4v72zM670.8 735v72c0 11.8 9.6 21.4 21.4 21.4H724c11.8 0 21.4-9.6 21.4-21.4v-72h-74.6z" fill="#324A5E" p-id="13595"></path><path d="M704.2 195.8H319.8c-34 0-61.4 27.6-61.4 61.4v485.6H766V257.2c-0.2-33.8-27.8-61.4-61.8-61.4z" fill="#FFC740" p-id="13596"></path><path d="M618.4 226H405.6c-5.6 0-10.2 4.6-10.2 10.2v34.6c0 5.6 4.6 10.2 10.2 10.2h212.8c5.6 0 10.2-4.6 10.2-10.2V236c-0.2-5.6-4.6-10-10.2-10z" fill="#324A5E" p-id="13597"></path><path d="M418.2 258.8l6.2-0.6c0.4 2.2 1.2 3.6 2.2 4.6s2.8 1.4 4.6 1.4c2 0 3.6-0.4 4.6-1.4 1-0.8 1.6-2 1.6-3 0-0.8-0.2-1.4-0.6-2-0.4-0.6-1.2-1-2.4-1.4-0.8-0.2-2.4-0.8-5.2-1.4-3.4-0.8-5.8-2-7.2-3.2-2-1.8-3-3.8-3-6.4 0-1.6 0.4-3.2 1.4-4.6 1-1.4 2.2-2.4 4-3.2 1.8-0.8 3.8-1.2 6.2-1.2 4 0 7 0.8 9 2.6s3 4 3.2 7l-6.4 0.2c-0.2-1.6-0.8-2.8-1.8-3.6-1-0.8-2.2-1-4-1-1.8 0-3.4 0.4-4.4 1.2-0.6 0.4-1 1.2-1 2s0.4 1.4 1 2c0.8 0.6 2.8 1.4 6 2.2 3.2 0.8 5.4 1.6 7 2.2 1.6 0.8 2.6 1.8 3.6 3.2 0.8 1.4 1.2 3 1.2 5 0 1.8-0.6 3.6-1.6 5.2s-2.4 2.8-4.4 3.6c-1.8 0.8-4.2 1.2-7 1.2-4 0-7.2-1-9.2-2.8s-3.2-4.2-3.6-7.8zM470 257.6l6.2 2c-1 3.4-2.6 6-4.8 7.8-2.2 1.6-5 2.6-8.4 2.6-4.2 0-7.8-1.4-10.4-4.4-2.8-2.8-4-6.8-4-11.8 0-5.4 1.4-9.4 4.2-12.4s6.4-4.4 10.8-4.4c4 0 7 1.2 9.6 3.4 1.4 1.4 2.6 3.4 3.2 5.8l-6.4 1.6c-0.4-1.6-1.2-3-2.4-4s-2.6-1.4-4.4-1.4c-2.4 0-4.2 0.8-5.8 2.6s-2.2 4.4-2.2 8.2c0 4 0.8 7 2.2 8.6 1.4 1.8 3.4 2.6 5.6 2.6 1.8 0 3.2-0.6 4.4-1.6 1-1.2 2-3 2.6-5.2zM481.8 269.2v-32h6.4v12.6h12.6v-12.6h6.4v32h-6.4v-14h-12.6v14h-6.4zM512.6 253.6c0-3.2 0.4-6 1.4-8.2 0.8-1.6 1.8-3 3-4.4 1.2-1.2 2.6-2.2 4.2-2.8 2-0.8 4.2-1.2 6.8-1.2 4.8 0 8.4 1.4 11.2 4.4s4.2 7 4.2 12.2c0 5.2-1.4 9.2-4.2 12s-6.6 4.4-11.2 4.4c-4.8 0-8.6-1.4-11.4-4.4-2.6-3-4-7-4-12z m6.6-0.2c0 3.6 0.8 6.4 2.6 8.2s3.8 2.8 6.4 2.8 4.6-1 6.4-2.8c1.6-1.8 2.4-4.6 2.4-8.4 0-3.6-0.8-6.4-2.4-8.2-1.6-1.8-3.8-2.6-6.4-2.6-2.6 0-4.8 1-6.4 2.8-1.8 1.6-2.6 4.4-2.6 8.2zM547.2 253.6c0-3.2 0.4-6 1.4-8.2 0.8-1.6 1.8-3 3-4.4 1.2-1.2 2.6-2.2 4.2-2.8 2-0.8 4.2-1.2 6.8-1.2 4.8 0 8.4 1.4 11.2 4.4s4.2 7 4.2 12.2c0 5.2-1.4 9.2-4.2 12-2.8 3-6.6 4.4-11.2 4.4-4.8 0-8.6-1.4-11.4-4.4-2.6-3-4-7-4-12z m6.6-0.2c0 3.6 0.8 6.4 2.6 8.2 1.6 1.8 3.8 2.8 6.4 2.8s4.6-1 6.4-2.8c1.6-1.8 2.4-4.6 2.4-8.4 0-3.6-0.8-6.4-2.4-8.2-1.6-1.8-3.8-2.6-6.4-2.6s-4.8 1-6.4 2.8c-1.8 1.6-2.6 4.4-2.6 8.2zM583.4 269.2v-31.6h6.4V264h16v5.4h-22.4z" fill="#E6E9EE" p-id="13598"></path><path d="M249.2 703h525.8v39.8H249.2z" fill="#2B3B4E" p-id="13599"></path><path d="M267.4 498.6v13.4c-14.8 0.4-26-3.2-33.4-11-7.4-7.8-10-18.4-10.8-26.8h14.2c3 0 5.2-2.4 5.2-5.2v-100.4c0-3-2.4-5.2-5.2-5.2H193.2c-3 0-5.2 2.4-5.2 5.2v100.4c0 3 2.4 5.2 5.2 5.2h14.2c0.8 11 4.2 26 15 37.4 10.2 10.8 24.6 16.4 42.8 16.4h2.2v11.4h13.2v-40.8h-13.2zM756.6 498.6v13.4c14.8 0.4 26-3.2 33.4-11 7.4-7.8 10-18.4 10.8-26.8h-14.2c-3 0-5.2-2.4-5.2-5.2v-100.4c0-3 2.4-5.2 5.2-5.2h44.2c3 0 5.2 2.4 5.2 5.2v100.4c0 3-2.4 5.2-5.2 5.2h-14.2c-0.8 11-4.2 26-15 37.4-10.2 10.8-24.6 16.4-42.8 16.4h-2.2v11.4h-13.2v-40.8h13.2z" fill="#324A5E" p-id="13600"></path><path d="M287.4 302.8h216.2v188.4H287.4zM520.4 302.8h216.2v188.4H520.4z" fill="#324A5E" p-id="13601"></path><path d="M277 643a34 29.4 0 1 0 68 0 34 29.4 0 1 0-68 0Z" fill="#FFFFFF" p-id="13602"></path><path d="M679 643a34 29.4 0 1 0 68 0 34 29.4 0 1 0-68 0Z" fill="#FFFFFF" p-id="13603"></path><path d="M598.4 523.8h65.2v179.2h-65.2zM360.4 523.8h65.2v179.2h-65.2z" fill="#FFB734" p-id="13604"></path><path d="M598.4 569.6h-172.8l-65.2-45.8h303.2z" fill="#FCD759" p-id="13605"></path><path d="M473 687.2h-15.2c-1.4 0-2.6-1.2-2.6-2.6v-88c0-1.4 1.2-2.6 2.6-2.6h15.2c1.4 0 2.6 1.2 2.6 2.6v88c0 1.4-1.2 2.6-2.6 2.6zM519.6 687.2h-15.2c-1.4 0-2.6-1.2-2.6-2.6v-88c0-1.4 1.2-2.6 2.6-2.6h15.2c1.4 0 2.6 1.2 2.6 2.6v88c0 1.4-1.2 2.6-2.6 2.6zM566.2 687.2h-15.2c-1.4 0-2.6-1.2-2.6-2.6v-88c0-1.4 1.2-2.6 2.6-2.6h15.2c1.4 0 2.6 1.2 2.6 2.6v88c0 1.4-1.2 2.6-2.6 2.6z" fill="#2B3B4E" p-id="13606"></path></svg>
