<svg t="1689843340601" class="icon" viewBox="0 0 1024 1024" version="1.1" xmlns="http://www.w3.org/2000/svg" p-id="1289" width="200" height="200"><path d="M0 0m219.428571 0l585.142858 0q219.428571 0 219.428571 219.428571l0 585.142858q0 219.428571-219.428571 219.428571l-585.142858 0q-219.428571 0-219.428571-219.428571l0-585.142858q0-219.428571 219.428571-219.428571Z" fill="#F15641" p-id="1290"></path><path d="M715.702857 310.857143c8.685714 0 15.725714 7.625143 15.725714 17.042286v401.590857c-0.036571 31.341714-23.478857 56.758857-52.425142 56.795428H381.44c-8.685714 0-15.725714-7.625143-15.725714-17.042285 0-9.398857 7.04-17.024 15.725714-17.024h297.563429c11.556571 0 20.955429-10.203429 20.955428-22.729143V327.899429c0-9.417143 7.058286-17.042286 15.725714-17.042286z m-92.470857-73.142857c29.403429-0.018286 53.266286 24.704 53.339429 55.277714v364.873143C676.498286 688.438857 652.617143 713.142857 623.232 713.142857H345.910857c-29.403429 0.018286-53.266286-24.704-53.339428-55.277714V292.992C292.644571 262.418286 316.525714 237.714286 345.910857 237.714286h277.321143z m-33.005714 329.142857H378.916571c-7.296 0-13.202286 4.096-13.202285 9.142857s5.906286 9.142857 13.202285 9.142857h211.309715c7.296 0 13.202286-4.096 13.202285-9.142857s-5.906286-9.142857-13.202285-9.142857z m0-109.714286H378.916571c-7.296 0-13.202286 4.096-13.202285 9.142857s5.906286 9.142857 13.202285 9.142857h211.309715c7.296 0 13.202286-4.096 13.202285-9.142857s-5.906286-9.142857-13.202285-9.142857z m0-91.428571H378.916571c-7.296 0-13.202286 4.096-13.202285 9.142857s5.906286 9.142857 13.202285 9.142857h211.309715c7.296 0 13.202286-4.096 13.202285-9.142857s-5.906286-9.142857-13.202285-9.142857z" fill="#FFFFFF" p-id="1291"></path></svg>
