<svg t="1689844395724" class="icon" viewBox="0 0 1024 1024" version="1.1" xmlns="http://www.w3.org/2000/svg" p-id="1774" width="200" height="200"><path d="M0 0m219.428571 0l585.142858 0q219.428571 0 219.428571 219.428571l0 585.142858q0 219.428571-219.428571 219.428571l-585.142858 0q-219.428571 0-219.428571-219.428571l0-585.142858q0-219.428571 219.428571-219.428571Z" fill="#15BC84" p-id="1775"></path><path d="M694.857143 256a36.571429 36.571429 0 0 1 36.571428 36.571429v438.857142a36.571429 36.571429 0 0 1-36.571428 36.571429H329.142857a36.571429 36.571429 0 0 1-36.571428-36.571429V292.571429a36.571429 36.571429 0 0 1 36.571428-36.571429h365.714286z m-54.857143 402.285714H384a18.285714 18.285714 0 0 0 0 36.571429h256a18.285714 18.285714 0 0 0 0-36.571429z m0-73.142857H384a18.285714 18.285714 0 0 0 0 36.571429h256a18.285714 18.285714 0 0 0 0-36.571429z m-119.899429-249.362286a18.285714 18.285714 0 0 0-24.502857 8.301715l-21.211428 42.989714-47.451429 6.912a18.285714 18.285714 0 0 0-10.130286 31.177143l34.322286 33.462857-8.100571 47.268571a18.285714 18.285714 0 0 0 26.532571 19.273143l33.938286-17.828571a18.285714 18.285714 0 0 1 17.005714 0l33.938286 17.828571a18.285714 18.285714 0 0 0 26.532571-19.273143l-8.100571-47.250285 34.322286-33.462857a18.285714 18.285714 0 0 0-10.130286-31.195429l-47.451429-6.912-21.211428-42.989714a18.285714 18.285714 0 0 0-8.301715-8.301715z" fill="#FFFFFF" p-id="1776"></path></svg>
