<svg t="1689844425836" class="icon" viewBox="0 0 1024 1024" version="1.1" xmlns="http://www.w3.org/2000/svg" p-id="2097" width="200" height="200"><path d="M512 12.487805c274.731707 0 499.512195 224.780488 499.512195 499.512195s-224.780488 499.512195-499.512195 499.512195-499.512195-224.780488-499.512195-499.512195 224.780488-499.512195 499.512195-499.512195z" fill="#2859D9" p-id="2098"></path><path d="M442.642732 696.569756h8.491707c7.96722 0 14.360976 6.443707 14.360976 14.336 0 7.942244 6.443707 14.336 14.336 14.336h64.287219a14.336 14.336 0 0 0 14.336-14.336c0-7.942244 6.443707-14.336 14.336-14.336h8.516683c9.890341 0 17.907512-7.992195 17.907512-17.907512v-8.067122a17.882537 17.882537 0 0 0-17.907512-17.907512H442.567805a17.882537 17.882537 0 0 0-17.882537 17.907512v8.117073a17.982439 17.982439 0 0 0 17.957464 17.857561z m58.692683-397.436878c-74.577171 5.12-134.743415 65.93561-139.288976 140.512781-2.997073 48.952195 17.482927 93.159024 51.224976 122.555317 7.367805 6.443707 11.463805 15.784585 11.463805 25.575024 0 18.931512 15.36 34.291512 34.316487 34.291512h105.896586c18.956488 0 34.316488-15.36 34.316487-34.291512 0-9.915317 4.32078-19.306146 11.813464-25.849756a150.253268 150.253268 0 0 0-109.717854-262.793366z m107.894634 139.863415a21.179317 21.179317 0 0 1-27.273366-12.437854c-13.312-35.665171-45.480585-57.893463-79.847024-55.296a21.204293 21.204293 0 0 1-3.24683-42.258732c53.447805-4.071024 102.774634 29.196488 122.730147 82.71922a21.154341 21.154341 0 0 1-12.362927 27.298341z" fill="#FFFFFF" p-id="2099"></path></svg>
