<svg xmlns="http://www.w3.org/2000/svg" version="1.1" width="290px" height="267px" style="shape-rendering:geometricPrecision; text-rendering:geometricPrecision; image-rendering:optimizeQuality; fill-rule:evenodd; clip-rule:evenodd" xmlns:xlink="http://www.w3.org/1999/xlink">
<g><path style="opacity:0.993" fill="#010101" d="M 196.5,8.5 C 198.792,10.2671 201.458,11.2671 204.5,11.5C 252.086,31.4171 280.419,66.7504 289.5,117.5C 289.5,127.833 289.5,138.167 289.5,148.5C 277.691,207.486 242.691,245.32 184.5,262C 177.053,263.625 169.72,265.125 162.5,266.5C 150.833,266.5 139.167,266.5 127.5,266.5C 78.3467,260.48 40.8467,236.48 15,194.5C 7.09665,179.955 1.92998,164.622 -0.5,148.5C -0.5,138.167 -0.5,127.833 -0.5,117.5C 7.34597,71.462 32.0126,37.7953 73.5,16.5C 75.3797,16.7709 76.713,16.1042 77.5,14.5C 80.4815,14.8176 82.8148,13.8176 84.5,11.5C 86.5529,11.5979 88.2196,10.9313 89.5,9.5C 125.066,-2.0041 160.733,-2.33743 196.5,8.5 Z"/></g>
<g><path style="opacity:0.396" fill="#e5e5e5" d="M 126.5,-0.5 C 138.167,-0.5 149.833,-0.5 161.5,-0.5C 173.519,1.08823 185.186,4.08823 196.5,8.5C 160.733,-2.33743 125.066,-2.0041 89.5,9.5C 94.1433,7.0044 99.1433,5.17107 104.5,4C 111.947,2.37498 119.28,0.874978 126.5,-0.5 Z"/></g>
<g><path style="opacity:0.498" fill="#d3d3d3" d="M 89.5,9.5 C 88.2196,10.9313 86.5529,11.5979 84.5,11.5C 85.7804,10.0687 87.4471,9.40206 89.5,9.5 Z"/></g>
<g><path style="opacity:0.686" fill="#b1b1b1" d="M 196.5,8.5 C 199.542,8.73292 202.208,9.73292 204.5,11.5C 201.458,11.2671 198.792,10.2671 196.5,8.5 Z"/></g>
<g><path style="opacity:1" fill="#7e7e7e" d="M 84.5,11.5 C 82.8148,13.8176 80.4815,14.8176 77.5,14.5C 79.4261,12.7073 81.7594,11.7073 84.5,11.5 Z"/></g>
<g><path style="opacity:0.749" fill="#9d9d9d" d="M 77.5,14.5 C 76.713,16.1042 75.3797,16.7709 73.5,16.5C 74.5137,15.3263 75.847,14.6596 77.5,14.5 Z"/></g>
<g><path style="opacity:1" fill="#e3e3e3" d="M 186.5,24.5 C 190.976,25.7226 191.309,27.3893 187.5,29.5C 185.296,28.218 184.962,26.5514 186.5,24.5 Z"/></g>
<g><path style="opacity:1" fill="#c8c8c8" d="M 171.5,32.5 C 177.291,34.0501 177.624,36.0501 172.5,38.5C 171.167,37.5 169.833,36.5 168.5,35.5C 169.993,34.8589 170.993,33.8589 171.5,32.5 Z"/></g>
<g><path style="opacity:1" fill="#535353" d="M 88.5,34.5 C 90.7327,36.2168 90.7327,38.2168 88.5,40.5C 87.5,40.1667 86.8333,39.5 86.5,38.5C 87.1799,37.1401 87.8466,35.8068 88.5,34.5 Z"/></g>
<g><path style="opacity:1" fill="#e7e7e7" d="M 113.5,37.5 C 116.879,39.6506 117.213,42.3172 114.5,45.5C 113.77,44.0663 112.77,42.8996 111.5,42C 113.037,40.8904 113.703,39.3904 113.5,37.5 Z"/></g>
<g><path style="opacity:1" fill="#e3e3e3" d="M 129.5,43.5 C 131.798,44.7966 133.798,46.4632 135.5,48.5C 133.565,49.5634 131.899,50.8967 130.5,52.5C 129.008,50.8435 127.342,49.3435 125.5,48C 127.384,46.9513 128.718,45.4513 129.5,43.5 Z"/></g>
<g><path style="opacity:1" fill="#d1d1d1" d="M 210.5,46.5 C 214.458,47.7979 214.458,49.1312 210.5,50.5C 207.875,49.1353 207.875,47.802 210.5,46.5 Z"/></g>
<g><path style="opacity:1" fill="#cfcfcf" d="M 61.5,43.5 C 63.217,45.3621 65.217,47.0288 67.5,48.5C 66.3112,49.4287 64.9778,49.762 63.5,49.5C 63.719,50.675 63.3857,51.675 62.5,52.5C 61.1752,51.2094 59.8419,49.8761 58.5,48.5C 59.9524,47.0603 60.9524,45.3936 61.5,43.5 Z"/></g>
<g><path style="opacity:1" fill="#cecece" d="M 151.5,57.5 C 158.618,58.7938 158.952,60.4605 152.5,62.5C 147.527,61.5143 147.193,59.8476 151.5,57.5 Z"/></g>
<g><path style="opacity:1" fill="#ededed" d="M 70.5,59.5 C 71.5,59.5 72.5,59.5 73.5,59.5C 74.8333,61.8333 76.1667,64.1667 77.5,66.5C 76.1667,66.5 74.8333,66.5 73.5,66.5C 73.7778,68.3464 73.1112,69.6798 71.5,70.5C 70.1667,67.8333 68.1667,65.8333 65.5,64.5C 66.6651,63.4164 67.9984,62.5831 69.5,62C 70.2524,61.3292 70.5858,60.4959 70.5,59.5 Z"/></g>
<g><path style="opacity:1" fill="#dadada" d="M 173.5,66.5 C 174.239,66.369 174.906,66.5357 175.5,67C 176.184,68.6934 177.184,70.1934 178.5,71.5C 177.05,72.8498 176.383,74.5165 176.5,76.5C 175.167,76.5 173.833,76.5 172.5,76.5C 172.617,74.5165 171.95,72.8498 170.5,71.5C 171.994,70.0953 172.994,68.4287 173.5,66.5 Z"/></g>
<g><path style="opacity:1" fill="#d5d5d5" d="M 45.5,66.5 C 50.2037,68.5852 50.5371,71.2518 46.5,74.5C 45.6461,73.0521 44.6461,71.7187 43.5,70.5C 44.8532,69.4763 45.5198,68.143 45.5,66.5 Z"/></g>
<g><path style="opacity:1" fill="#d6d6d6" d="M 101.5,70.5 C 106.024,72.3271 106.357,74.6604 102.5,77.5C 101.738,76.3717 101.071,75.2051 100.5,74C 101.337,72.9887 101.67,71.8221 101.5,70.5 Z"/></g>
<g><path style="opacity:1" fill="#d4d4d4" d="M 213.5,71.5 C 216.166,71.0658 217.333,72.0658 217,74.5C 213.403,76.0661 212.237,75.0661 213.5,71.5 Z"/></g>
<g><path style="opacity:1" fill="#dcdcdc" d="M 50.5,84.5 C 54.6485,86.5509 54.9819,88.8842 51.5,91.5C 50.5,90.5 49.5,89.5 48.5,88.5C 49.1799,87.1401 49.8466,85.8068 50.5,84.5 Z"/></g>
<g><path style="opacity:1" fill="#dedede" d="M 252.5,86.5 C 257.237,88.6101 257.404,90.9434 253,93.5C 249.985,91.4669 249.818,89.1335 252.5,86.5 Z"/></g>
<g><path style="opacity:1" fill="#f4f4f4" d="M 124.5,163.5 C 123.432,164.434 122.099,164.768 120.5,164.5C 103.284,162.81 89.1174,155.477 78,142.5C 69.9501,128.459 71.7835,115.792 83.5,104.5C 102.331,89.7603 123.665,84.5936 147.5,89C 160.326,91.5462 171.66,97.0462 181.5,105.5C 184.829,108.33 187.162,111.83 188.5,116C 188.167,116.5 187.833,117 187.5,117.5C 177.733,106.281 165.399,99.7814 150.5,98C 127.983,94.3304 108.483,100.164 92,115.5C 85.0846,125.252 84.7512,135.252 91,145.5C 99.8708,155.851 111.037,161.851 124.5,163.5 Z"/></g>
<g><path style="opacity:1" fill="#fcfcfc" d="M 132.5,99.5 C 148.833,98.3306 163.833,102.164 177.5,111C 193.885,125.687 193.218,139.687 175.5,153C 154.135,164.104 132.135,165.437 109.5,157C 99.141,152.644 92.3077,145.144 89,134.5C 88.6483,124.702 92.4816,116.869 100.5,111C 110.297,104.595 120.964,100.761 132.5,99.5 Z"/></g>
<g><path style="opacity:1" fill="#fcfcfc" d="M 212.5,226.5 C 212.5,229.833 212.5,233.167 212.5,236.5C 209.247,236.562 206.247,237.396 203.5,239C 206.507,239.301 209.507,239.135 212.5,238.5C 212.5,239.833 212.5,241.167 212.5,242.5C 186.318,254.921 158.651,259.921 129.5,257.5C 129.504,255.158 130.337,253.158 132,251.5C 132.864,224.109 132.03,196.775 129.5,169.5C 132.5,168.833 135.5,168.167 138.5,167.5C 157.464,167.013 173.464,160.013 186.5,146.5C 196.107,132.778 195.774,119.444 185.5,106.5C 185.667,106.167 185.833,105.833 186,105.5C 186.903,106.701 188.069,107.535 189.5,108C 192.939,111.696 195.772,115.863 198,120.5C 199.62,126.033 201.62,131.366 204,136.5C 205.563,153.45 208.229,170.117 212,186.5C 212.5,199.829 212.667,213.163 212.5,226.5 Z"/></g>
<g><path style="opacity:1" fill="#1b1b1b" d="M 109.5,112.5 C 114.159,112.015 115.492,113.848 113.5,118C 108.728,118.81 107.395,116.977 109.5,112.5 Z"/></g>
<g><path style="opacity:1" fill="#141414" d="M 129.5,113.5 C 133.527,113.26 134.861,114.926 133.5,118.5C 128.732,119.889 127.398,118.223 129.5,113.5 Z"/></g>
<g><path style="opacity:1" fill="#dedede" d="M 240.5,120.5 C 246.532,122.544 246.865,125.21 241.5,128.5C 240.5,126.833 239.167,125.5 237.5,124.5C 238.826,123.358 239.826,122.024 240.5,120.5 Z"/></g>
<g><path style="opacity:1" fill="#e5e5e5" d="M 31.5,138.5 C 33.1238,138.36 34.2904,139.027 35,140.5C 35.1805,142.488 35.0138,144.488 34.5,146.5C 33.5,146.5 32.5,146.5 31.5,146.5C 30.3697,143.803 30.3697,141.137 31.5,138.5 Z"/></g>
<g><path style="opacity:1" fill="#ececec" d="M 265.5,139.5 C 267.599,141.587 269.265,143.92 270.5,146.5C 269.5,146.5 268.5,146.5 267.5,146.5C 267.5,147.5 267.5,148.5 267.5,149.5C 266.5,149.5 265.5,149.5 264.5,149.5C 264.297,147.362 263.297,145.695 261.5,144.5C 263.552,143.389 264.886,141.723 265.5,139.5 Z"/></g>
<g><path style="opacity:1" fill="#aaaaaa" d="M 257.5,158.5 C 261.887,159.766 262.22,161.433 258.5,163.5C 256.246,162.286 255.913,160.619 257.5,158.5 Z"/></g>
<g><path style="opacity:1" fill="#616161" d="M 124.5,163.5 C 127.166,163.933 129.832,164.433 132.5,165C 128.311,165.812 124.311,165.645 120.5,164.5C 122.099,164.768 123.432,164.434 124.5,163.5 Z"/></g>
<g><path style="opacity:1" fill="#eeeeee" d="M 72.5,167.5 C 73.8149,168.476 75.1482,169.476 76.5,170.5C 75.2402,171.382 74.0736,172.382 73,173.5C 71.9264,172.382 70.7598,171.382 69.5,170.5C 70.7701,169.712 71.7701,168.712 72.5,167.5 Z"/></g>
<g><path style="opacity:1" fill="#828282" d="M 138.5,167.5 C 135.5,168.167 132.5,168.833 129.5,169.5C 128.957,169.44 128.624,169.107 128.5,168.5C 131.768,167.513 135.102,167.18 138.5,167.5 Z"/></g>
<g><path style="opacity:1" fill="#dbdbdb" d="M 223.5,171.5 C 227.089,172.372 227.423,174.039 224.5,176.5C 222.374,175.091 222.04,173.424 223.5,171.5 Z"/></g>
<g><path style="opacity:1" fill="#dadada" d="M 242.5,172.5 C 245.861,173.203 246.194,174.537 243.5,176.5C 241.358,175.563 241.024,174.23 242.5,172.5 Z"/></g>
<g><path style="opacity:1" fill="#d8d8d8" d="M 42.5,175.5 C 47.2037,177.585 47.5371,180.252 43.5,183.5C 42.0256,182.564 41.0256,181.23 40.5,179.5C 41.6302,178.378 42.2969,177.044 42.5,175.5 Z"/></g>
<g><path style="opacity:1" fill="#a7a7a7" d="M 253.5,186.5 C 256.78,187.732 257.114,189.399 254.5,191.5C 251.14,190.209 250.806,188.543 253.5,186.5 Z"/></g>
<g><path style="opacity:1" fill="#e1e1e1" d="M 106.5,187.5 C 109.388,188.54 109.721,189.873 107.5,191.5C 105.358,190.563 105.024,189.23 106.5,187.5 Z"/></g>
<g><path style="opacity:1" fill="#9f9f9f" d="M 234.5,187.5 C 239.882,189.969 239.549,191.136 233.5,191C 233.167,190.667 232.833,190.333 232.5,190C 233.381,189.292 234.047,188.458 234.5,187.5 Z"/></g>
<g><path style="opacity:1" fill="#a5a5a5" d="M 71.5,193.5 C 74.6465,194.755 74.9799,196.421 72.5,198.5C 70.3737,197.091 70.0404,195.424 71.5,193.5 Z"/></g>
<g><path style="opacity:1" fill="#eaeaea" d="M 57.5,201.5 C 59.1042,202.287 59.7709,203.62 59.5,205.5C 61.1033,205.312 62.4366,205.812 63.5,207C 61.2083,208.138 59.2083,209.638 57.5,211.5C 56.1743,210.01 54.6743,208.676 53,207.5C 54.7681,206.034 56.2681,204.034 57.5,201.5 Z"/></g>
<g><path style="opacity:1" fill="#e6e6e6" d="M 87.5,203.5 C 90.0614,204.71 92.3947,206.376 94.5,208.5C 91.8333,209.167 90.1667,210.833 89.5,213.5C 87.3763,211.395 85.7096,209.061 84.5,206.5C 85.5,206.5 86.5,206.5 87.5,206.5C 87.5,205.5 87.5,204.5 87.5,203.5 Z"/></g>
<g><path style="opacity:1" fill="#eaeaea" d="M 231.5,209.5 C 233.461,211.121 235.461,212.787 237.5,214.5C 235.163,215.517 233.496,217.184 232.5,219.5C 231.291,217.585 229.958,215.752 228.5,214C 230.1,212.877 231.1,211.377 231.5,209.5 Z"/></g>
<g><path style="opacity:1" fill="#e0e0e0" d="M 109.5,217.5 C 113.643,218.408 114.143,220.074 111,222.5C 110.075,221.953 109.242,221.287 108.5,220.5C 109.127,219.583 109.461,218.583 109.5,217.5 Z"/></g>
<g><path style="opacity:1" fill="#a1a1a1" d="M 72.5,219.5 C 76.9506,221.367 77.2839,223.7 73.5,226.5C 71.2547,224.433 70.9213,222.1 72.5,219.5 Z"/></g>
<g><path style="opacity:1" fill="#a6a6a6" d="M 94.5,224.5 C 99.0122,225.28 99.3455,226.613 95.5,228.5C 94.5,228 93.5,227.5 92.5,227C 93.3805,226.292 94.0472,225.458 94.5,224.5 Z"/></g>
<g><path style="opacity:1" fill="#dbdbdb" d="M 81.5,232.5 C 84.8606,233.203 85.1939,234.537 82.5,236.5C 80.3576,235.563 80.0243,234.23 81.5,232.5 Z"/></g>
<g><path style="opacity:1" fill="#c6c6c6" d="M 212.5,226.5 C 213.236,229.695 213.903,233.029 214.5,236.5C 213.95,238.657 213.283,240.657 212.5,242.5C 212.5,241.167 212.5,239.833 212.5,238.5C 209.507,239.135 206.507,239.301 203.5,239C 206.247,237.396 209.247,236.562 212.5,236.5C 212.5,233.167 212.5,229.833 212.5,226.5 Z"/></g>
<g><path style="opacity:1" fill="#aaaaaa" d="M 105.5,240.5 C 111.532,242.544 111.865,245.21 106.5,248.5C 105.124,247.158 103.791,245.825 102.5,244.5C 103.826,243.358 104.826,242.024 105.5,240.5 Z"/></g>
</svg>
