<svg width="29" height="29" viewBox="0 0 29 29" fill="none" xmlns="http://www.w3.org/2000/svg">
    <g clip-path="url(#clip0_2230_284)">
        <path d="M25.1063 25.6986H4.31953C3.83281 25.6986 3.35977 25.6029 2.91406 25.4142C2.4875 25.2337 2.10195 24.9739 1.76836 24.6431C1.4375 24.3122 1.17773 23.9267 0.994531 23.4974C0.808594 23.049 0.712891 22.5759 0.712891 22.0919V5.97004C0.712891 5.48332 0.808594 5.01301 0.997266 4.56731C1.17773 4.13801 1.4375 3.75247 1.76836 3.42161C2.10195 3.08801 2.4875 2.82825 2.9168 2.64778C3.35977 2.45911 3.83281 2.3634 4.31953 2.3634H6.6C7.24531 2.3634 7.76758 2.88567 7.76758 3.53098C7.76758 4.17629 7.24531 4.69856 6.6 4.69856H4.31953C4.14727 4.69856 3.98047 4.73137 3.82461 4.797C3.67148 4.86262 3.53477 4.95286 3.41719 5.07043C3.29961 5.18801 3.20938 5.322 3.14375 5.47512C3.07813 5.63098 3.04531 5.79778 3.04531 5.97004V22.0919C3.04531 22.2642 3.07813 22.431 3.14648 22.5868C3.20938 22.7372 3.30234 22.8739 3.41992 22.9915C3.5375 23.1064 3.67148 23.1993 3.82461 23.2622C3.9832 23.3279 4.15 23.3634 4.31953 23.3634H25.1063C25.2785 23.3634 25.4453 23.3306 25.6012 23.265C25.7543 23.1993 25.891 23.1091 26.0086 22.9915C26.1262 22.8739 26.2164 22.74 26.282 22.5868C26.3477 22.431 26.3805 22.2642 26.3805 22.0919V5.97004C26.3805 5.79778 26.3477 5.63098 26.2793 5.47512C26.2164 5.32473 26.1234 5.18801 26.0059 5.07043C25.8883 4.95559 25.7543 4.86262 25.6012 4.79973C25.4426 4.73411 25.2758 4.69856 25.1063 4.69856H22.8258C22.1805 4.69856 21.6582 4.17629 21.6582 3.53098C21.6582 2.88567 22.1805 2.3634 22.8258 2.3634H25.1063C25.593 2.3634 26.066 2.45911 26.5117 2.64778C26.9383 2.82825 27.3238 3.08801 27.6574 3.41887C27.9883 3.74973 28.248 4.13528 28.4313 4.56457C28.6199 5.01028 28.7156 5.48332 28.7156 5.97004V22.0919C28.7156 22.5786 28.6199 23.0489 28.4313 23.4947C28.2508 23.9239 27.991 24.3095 27.6602 24.6404C27.3266 24.9739 26.941 25.2337 26.5117 25.4142C26.066 25.6029 25.593 25.6986 25.1063 25.6986Z" fill="#434655"/>
        <path d="M6.996 19.5764C6.8292 19.5764 6.65967 19.5408 6.50107 19.4643C5.91865 19.1908 5.66709 18.4936 5.94326 17.9111L13.4956 1.86582C13.769 1.2834 14.4663 1.03184 15.0487 1.30801C15.6312 1.58145 15.8827 2.27871 15.6065 2.86113L8.0542 18.9064C7.85459 19.3275 7.4335 19.5764 6.996 19.5764ZM22.88 12.2811H18.2124C17.5671 12.2811 17.0448 11.7588 17.0448 11.1135C17.0448 10.4682 17.5671 9.9459 18.2124 9.9459H22.88C23.5253 9.9459 24.0476 10.4682 24.0476 11.1135C24.0476 11.7588 23.5226 12.2811 22.88 12.2811ZM22.88 19.2811H12.38C11.7347 19.2811 11.2124 18.7588 11.2124 18.1135C11.2124 17.4682 11.7347 16.9459 12.38 16.9459H22.88C23.5253 16.9459 24.0476 17.4682 24.0476 18.1135C24.0476 18.7588 23.5226 19.2811 22.88 19.2811Z" fill="#5374F0"/>
    </g>
    <defs>
        <clipPath id="clip0_2230_284">
            <rect width="28" height="28" fill="white" transform="translate(0.712891 0.0310059)"/>
        </clipPath>
    </defs>
</svg>
