<svg width="29" height="29" viewBox="0 0 29 29" fill="none" xmlns="http://www.w3.org/2000/svg">
    <path d="M23.2252 25.7013H6.98574C5.02793 25.7013 3.43652 24.1099 3.43652 22.1521V5.91262C3.43652 3.95481 5.02793 2.3634 6.98574 2.3634H15.1068C15.7521 2.3634 16.2744 2.88567 16.2744 3.53098C16.2744 4.17629 15.7521 4.69856 15.1068 4.69856H6.98574C6.31582 4.69856 5.77168 5.2427 5.77168 5.91262V22.1521C5.77168 22.822 6.31582 23.3661 6.98574 23.3661H23.2252C23.8951 23.3661 24.4393 22.822 24.4393 22.1521V14.031C24.4393 13.3857 24.9615 12.8634 25.6068 12.8634C26.2521 12.8634 26.7744 13.3857 26.7744 14.031V22.1521C26.7744 24.1099 25.183 25.7013 23.2252 25.7013Z" fill="#434655"/>
    <path d="M13.9196 20.7165C13.8704 20.7165 13.8239 20.7138 13.7747 20.7083L10.097 20.2489C9.5665 20.1833 9.15088 19.7649 9.08525 19.2372L8.62588 15.5595C8.58213 15.2013 8.70517 14.8431 8.95947 14.5888L19.2024 4.3458C20.5997 2.94854 22.872 2.94854 24.2692 4.3458L24.9884 5.06494C25.6665 5.74033 26.0384 6.63994 26.0384 7.59971C26.0384 8.55674 25.6665 9.45635 24.9884 10.1345L14.7454 20.3747C14.5239 20.5962 14.2259 20.7165 13.9196 20.7165ZM11.2864 18.045L13.4958 18.3212L23.3341 8.48291C23.5692 8.24775 23.7005 7.9333 23.7005 7.59971C23.7005 7.26611 23.5692 6.95166 23.3341 6.7165L22.6149 5.99736C22.1255 5.51064 21.3353 5.51064 20.8485 5.99736L11.0103 15.8356L11.2864 18.045Z" fill="#5374F0"/>
</svg>
