<svg width="29" height="29" viewBox="0 0 29 29" fill="none" xmlns="http://www.w3.org/2000/svg">
    <g clip-path="url(#clip0_2230_271)">
        <path d="M6.54492 12.8634C6.54492 13.3275 6.7293 13.7727 7.05748 14.1008C7.38567 14.429 7.83079 14.6134 8.29492 14.6134C8.75905 14.6134 9.20417 14.429 9.53236 14.1008C9.86055 13.7727 10.0449 13.3275 10.0449 12.8634C10.0449 12.3993 9.86055 11.9542 9.53236 11.626C9.20417 11.2978 8.75905 11.1134 8.29492 11.1134C7.83079 11.1134 7.38567 11.2978 7.05748 11.626C6.7293 11.9542 6.54492 12.3993 6.54492 12.8634Z" fill="#5374F0"/>
        <path d="M10.1383 26.7786C9.99609 26.7786 9.85391 26.7568 9.71445 26.7103C9.33711 26.5872 9.03633 26.3056 8.8832 25.9419L7.80859 23.3661H4.22109C2.28516 23.3634 0.712891 21.7911 0.712891 19.8579V5.87161C0.712891 3.9384 2.28516 2.3634 4.22109 2.3634H25.2074C27.1406 2.3634 28.7156 3.93567 28.7156 5.87161V19.8579C28.7156 21.7911 27.1434 23.3661 25.2074 23.3661H16.2031L10.8355 26.5845C10.625 26.713 10.3816 26.7786 10.1383 26.7786ZM4.22109 4.69856C3.57305 4.69856 3.04805 5.22629 3.04805 5.87161V19.8579C3.04805 20.506 3.57578 21.031 4.22109 21.031H9.36719L10.6059 24.0032L15.5578 21.031H25.2074C25.8555 21.031 26.3805 20.5032 26.3805 19.8579V5.87161C26.3805 5.22356 25.8527 4.69856 25.2074 4.69856H4.22109Z" fill="#434655"/>
        <path d="M12.9629 12.8634C12.9629 13.3275 13.1473 13.7727 13.4755 14.1008C13.8036 14.429 14.2488 14.6134 14.7129 14.6134C15.177 14.6134 15.6221 14.429 15.9503 14.1008C16.2785 13.7727 16.4629 13.3275 16.4629 12.8634C16.4629 12.3993 16.2785 11.9542 15.9503 11.626C15.6221 11.2978 15.177 11.1134 14.7129 11.1134C14.2488 11.1134 13.8036 11.2978 13.4755 11.626C13.1473 11.9542 12.9629 12.3993 12.9629 12.8634Z" fill="#5374F0"/>
        <path d="M19.3809 12.8634C19.3809 13.3275 19.5652 13.7727 19.8934 14.1008C20.2216 14.429 20.6667 14.6134 21.1309 14.6134C21.595 14.6134 22.0401 14.429 22.3683 14.1008C22.6965 13.7727 22.8809 13.3275 22.8809 12.8634C22.8809 12.3993 22.6965 11.9542 22.3683 11.626C22.0401 11.2978 21.595 11.1134 21.1309 11.1134C20.6667 11.1134 20.2216 11.2978 19.8934 11.626C19.5652 11.9542 19.3809 12.3993 19.3809 12.8634Z" fill="#5374F0"/>
    </g>
    <defs>
        <clipPath id="clip0_2230_271">
            <rect width="28" height="28" fill="white" transform="translate(0.712891 0.0310059)"/>
        </clipPath>
    </defs>
</svg>
