<svg width="27" height="25" viewBox="0 0 27 25" fill="none" xmlns="http://www.w3.org/2000/svg">
    <path d="M20.527 24.8106C20.2837 24.8106 20.0376 24.7614 19.8024 24.663L13.7676 22.12L7.73288 24.663C7.12858 24.9173 6.45319 24.838 5.92272 24.4552C5.39225 24.0696 5.10788 23.4517 5.1653 22.7981L5.71765 16.2712L1.43288 11.3138C1.00358 10.8188 0.869598 10.1517 1.07194 9.52822C1.27429 8.90479 1.77468 8.44541 2.41452 8.29502L8.79108 6.80478L12.179 1.19932C12.518 0.63877 13.1114 0.305176 13.7649 0.305176C14.4212 0.305176 15.0145 0.63877 15.3536 1.19932L18.7415 6.80478L25.118 8.29502C25.7551 8.44541 26.2583 8.90479 26.4606 9.52822C26.663 10.1517 26.529 10.8188 26.0997 11.3138L21.8176 16.2685L22.37 22.7954C22.4247 23.4489 22.143 24.0669 21.6126 24.4524C21.2899 24.6876 20.9098 24.8079 20.527 24.8106ZM3.71608 10.3868L7.6153 14.8958C7.94069 15.2704 8.10202 15.7708 8.061 16.2657L7.55788 22.2048L13.0485 19.8915C13.5079 19.7001 14.0301 19.7001 14.4868 19.8915L19.9801 22.2048L19.477 16.2657C19.436 15.7708 19.5973 15.2704 19.9227 14.8958L23.8192 10.3868L18.0169 9.03057C17.5329 8.91846 17.1091 8.60947 16.852 8.18291L13.7676 3.08604L10.6833 8.18564C10.4262 8.61221 10.0024 8.91846 9.51843 9.0333L3.71608 10.3868Z" fill="#434655"/>
</svg>
